<svg xmlns="http://www.w3.org/2000/svg" x="0px" y="0px"
width="30" height="30"
viewBox="0 0 226 226"
style=" fill:#000000;"><g fill="none" fill-rule="nonzero" stroke="none" stroke-width="1" stroke-linecap="butt" stroke-linejoin="miter" stroke-miterlimit="10" stroke-dasharray="" stroke-dashoffset="0" font-family="none" font-weight="none" font-size="none" text-anchor="none" style="mix-blend-mode: normal"><path d="M0,226v-226h226v226z" fill="none"></path><g fill="#666666"><path d="M113,22.6c-49.9234,0 -90.4,40.4766 -90.4,90.4c0,42.35993 29.16907,77.80427 68.49307,87.61267c-0.42187,-1.2204 -0.69307,-2.63667 -0.69307,-4.39193v-15.45087c-3.66873,0 -9.81593,0 -11.36027,0c-6.18487,0 -11.6842,-2.65927 -14.351,-7.60113c-2.9606,-5.4918 -3.47287,-13.89147 -10.81033,-19.0292c-2.17713,-1.71007 -0.5198,-3.6612 1.9888,-3.39753c4.633,1.3108 8.475,4.48987 12.091,9.20573c3.60093,4.7234 5.29593,5.79313 12.0232,5.79313c3.26193,0 8.14353,-0.18833 12.73887,-0.91153c2.47093,-6.27527 6.74233,-12.05333 11.96293,-14.7804c-30.1032,-3.0962 -44.46927,-18.07247 -44.46927,-38.40493c0,-8.75373 3.729,-17.2212 10.06453,-24.35527c-2.0792,-7.08133 -4.69327,-21.52273 0.79853,-27.02207c13.54493,0 21.73367,8.78387 23.69987,11.15687c6.74987,-2.31273 14.16267,-3.62353 21.95213,-3.62353c7.80453,0 15.24747,1.3108 22.0124,3.6386c1.9436,-2.35793 10.13987,-11.17193 23.71493,-11.17193c5.5144,5.50687 2.8702,20.00853 0.7684,27.0748c6.29787,7.119 10.00427,15.56387 10.00427,24.30253c0,20.3174 -14.34347,35.28613 -44.40147,38.3974c8.2716,4.3166 14.3058,16.44527 14.3058,25.5832v20.59613c0,0.78347 -0.17327,1.34847 -0.26367,2.01893c35.22587,-12.34713 60.53033,-45.79513 60.53033,-85.23967c0,-49.9234 -40.4766,-90.4 -90.4,-90.4z"></path></g></g></svg>