<svg xmlns="http://www.w3.org/2000/svg" x="0px" y="0px"
width="30" height="30"
viewBox="0 0 226 226"
style=" fill:#000000;"><g fill="none" fill-rule="nonzero" stroke="none" stroke-width="1" stroke-linecap="butt" stroke-linejoin="miter" stroke-miterlimit="10" stroke-dasharray="" stroke-dashoffset="0" font-family="none" font-weight="none" font-size="none" text-anchor="none" style="mix-blend-mode: normal"><path d="M0,226v-226h226v226z" fill="none"></path><g fill="#666666"><path d="M113,30.13333c-31.53453,0 -72.46419,7.90117 -72.46419,7.90117l-0.10299,0.11771c-14.36248,2.297 -25.36615,14.63856 -25.36615,29.64779v45.2v0.01471v45.18529v0.01471c0.02895,14.80782 10.81259,27.40017 25.43971,29.70664l0.02943,0.04415c0,0 40.92966,7.91588 72.46419,7.91588c31.53453,0 72.4642,-7.91588 72.4642,-7.91588l0.01471,-0.01471c14.64395,-2.30173 25.43878,-14.91234 25.45443,-29.73607v-0.01471v-45.18529v-0.01471v-45.2c-0.02173,-14.8134 -10.8071,-27.41401 -25.43971,-29.72135l-0.02943,-0.04414c0,0 -40.92966,-7.90117 -72.4642,-7.90117zM90.4,78.3349l60.26667,34.6651l-60.26667,34.6651z"></path></g></g></svg>